<svg t="1669262255868" class="icon" viewBox="0 0 1024 1024" version="1.1" xmlns="http://www.w3.org/2000/svg" p-id="2454" width="128" height="128"><path d="M784.931217 817.845503l-157.076543-437.999295V213.062434h25.916049a22.574956 22.574956 0 0 0 0-45.149912H370.184127a22.574956 22.574956 0 0 0 0 45.149912h23.477954v168.318871l-151.884303 436.689947a22.574956 22.574956 0 0 0 21.310758 29.979542h500.577072a22.574956 22.574956 0 0 0 21.265609-30.205291zM437.547795 392.578483a21.807407 21.807407 0 0 0 1.264198-7.404585V213.062434h143.937919V383.77425c0 2.618695 0.451499 5.19224 1.309347 7.630336l65.196473 181.863844c-39.009524-9.120282-97.38836-13.906173-156.941094 15.44127-56.07619 27.541446-102.5806 17.202116-125.923104 8.397884l71.156261-204.529101zM294.828924 802.900882l56.753439-163.126632c16.208818 5.959788 39.370723 11.964727 67.453969 11.964727 27.270547 0 59.056085-5.688889 93.234567-22.529806 66.59612-32.688536 134.050088-11.648677 155.902646-3.160494l63.435626 176.897355H294.828924z" fill="#231815" p-id="2455"></path></svg>